<svg xmlns="http://www.w3.org/2000/svg" viewBox="0 0 64 64" width="64" height="64">
  <rect width="64" height="64" rx="14" fill="#3a2417"/>
  <!-- cupcake / prajitura mark -->
  <path d="M20 34 L44 34 L40 52 L24 52 Z" fill="#e9d3b3"/>
  <path d="M20 34 L44 34 L43 38 L21 38 Z" fill="#c8a06a"/>
  <path d="M32 12c-5 0-9 3.6-9.4 8.4C18.8 21 16 24 16 27.6c0 3.9 3.4 6.4 7.4 6.4h17.2c4 0 7.4-2.5 7.4-6.4 0-3.6-2.8-6.6-6.6-7.2C41 15.6 37 12 32 12z" fill="#f6e7d2"/>
  <circle cx="32" cy="10" r="3.2" fill="#c04a63"/>
</svg>
