<svg xmlns="http://www.w3.org/2000/svg" viewBox="0 0 64 64">
  <defs>
    <linearGradient id="g" x1="0" y1="0" x2="1" y2="1">
      <stop offset="0" stop-color="#e8b7c2"/>
      <stop offset="1" stop-color="#b06a86"/>
    </linearGradient>
  </defs>
  <rect width="64" height="64" rx="14" fill="#2a1720"/>
  <!-- stylised butterfly / nail motif -->
  <g fill="url(#g)">
    <path d="M32 20c-4-8-14-11-19-6-4 5-1 14 7 17 4 1.6 8 1.4 12-.5z"/>
    <path d="M32 20c4-8 14-11 19-6 4 5 1 14-7 17-4 1.6-8 1.4-12-.5z"/>
    <path d="M32 34c-3.5 6-11 9-15 5-3-3-1-10 5-12 3-1.2 6.5-.4 10 .9z"/>
    <path d="M32 34c3.5 6 11 9 15 5 3-3 1-10-5-12-3-1.2-6.5-.4-10 .9z"/>
  </g>
  <rect x="30.6" y="16" width="2.8" height="30" rx="1.4" fill="#f3dde3"/>
  <circle cx="32" cy="15" r="2.6" fill="#f3dde3"/>
</svg>
