<svg xmlns="http://www.w3.org/2000/svg" viewBox="0 0 64 64">
  <defs>
    <linearGradient id="g" x1="0" y1="0" x2="1" y2="1">
      <stop offset="0" stop-color="#e6a4b4"/>
      <stop offset="1" stop-color="#b5486a"/>
    </linearGradient>
  </defs>
  <rect width="64" height="64" rx="15" fill="#231018"/>
  <!-- nail / polish drop mark -->
  <path d="M32 13c9 0 15 6 15 16 0 12-8 22-15 22s-15-10-15-22c0-10 6-16 15-16z" fill="url(#g)"/>
  <path d="M32 13c9 0 15 6 15 16 0 3-.6 5.9-1.6 8.6C40 34 34 30 27 30c-3.2 0-6 .6-8.4 1.6C18.2 21.7 24 13 32 13z" fill="#f4d3dc" opacity=".55"/>
  <circle cx="32" cy="27" r="3.2" fill="#fff" opacity=".9"/>
</svg>
