<svg xmlns="http://www.w3.org/2000/svg" viewBox="0 0 64 64" width="64" height="64">
  <defs>
    <linearGradient id="g" x1="0" y1="0" x2="1" y2="1">
      <stop offset="0" stop-color="#c98a9b"/>
      <stop offset="1" stop-color="#7e4a5c"/>
    </linearGradient>
  </defs>
  <rect width="64" height="64" rx="16" fill="url(#g)"/>
  <path d="M32 14c1.6 6 5.8 10.2 11.8 11.8C37.8 27.4 33.6 31.6 32 37.6 30.4 31.6 26.2 27.4 20.2 25.8 26.2 24.2 30.4 20 32 14z" fill="#fff7f2"/>
  <path d="M44 40c.6 2 2 3.4 4 4-2 .6-3.4 2-4 4-.6-2-2-3.4-4-4 2-.6 3.4-2 4-4z" fill="#fce8ec"/>
</svg>
