<svg xmlns="http://www.w3.org/2000/svg" viewBox="0 0 320 520" width="320" height="520" fill="none">
  <g stroke="#d64a95" stroke-width="1.4" stroke-linecap="round" opacity="0.9">
    <!-- main stem -->
    <path d="M160 510 C158 420 150 340 160 250 C168 180 158 110 160 30"/>
    <!-- leaves left -->
    <path d="M160 440 C120 430 96 400 92 360 C132 366 156 396 160 440 Z"/>
    <path d="M160 350 C124 342 104 314 100 278 C136 286 158 314 160 350 Z"/>
    <path d="M160 262 C128 256 110 232 106 200 C138 208 158 232 160 262 Z"/>
    <!-- leaves right -->
    <path d="M160 400 C200 392 224 362 228 322 C188 328 164 358 160 400 Z"/>
    <path d="M160 306 C196 298 216 270 220 234 C184 242 162 270 160 306 Z"/>
    <path d="M160 220 C192 214 210 190 214 158 C182 166 162 190 160 220 Z"/>
  </g>
  <!-- blossoms -->
  <g fill="#ea7fb8" opacity="0.5">
    <g transform="translate(160 60)">
      <ellipse cx="0" cy="-13" rx="7" ry="13"/>
      <ellipse cx="12" cy="-4" rx="7" ry="13" transform="rotate(72 12 -4)"/>
      <ellipse cx="8" cy="11" rx="7" ry="13" transform="rotate(144 8 11)"/>
      <ellipse cx="-8" cy="11" rx="7" ry="13" transform="rotate(216 -8 11)"/>
      <ellipse cx="-12" cy="-4" rx="7" ry="13" transform="rotate(288 -12 -4)"/>
    </g>
  </g>
  <circle cx="160" cy="60" r="4.5" fill="#d9a038" opacity="0.8"/>
</svg>
