<svg xmlns="http://www.w3.org/2000/svg" viewBox="0 0 600 600" preserveAspectRatio="xMidYMid slice" role="img">
  <defs>
    <linearGradient id="paint" x1="0" y1="0" x2="1" y2="1">
      <stop offset="0%" stop-color="#1a120c"/>
      <stop offset="48%" stop-color="#3a2416"/>
      <stop offset="100%" stop-color="#120b06"/>
    </linearGradient>
    <linearGradient id="sweep" x1="0" y1="0" x2="1" y2="0.2">
      <stop offset="0%" stop-color="#ffffff" stop-opacity="0"/>
      <stop offset="48%" stop-color="#e0b483" stop-opacity="0.16"/>
      <stop offset="53%" stop-color="#ffffff" stop-opacity="0.5"/>
      <stop offset="60%" stop-color="#e0b483" stop-opacity="0.16"/>
      <stop offset="100%" stop-color="#ffffff" stop-opacity="0"/>
    </linearGradient>
    <radialGradient id="orb" cx="50%" cy="50%" r="50%">
      <stop offset="0%" stop-color="#e0b483" stop-opacity="0.6"/>
      <stop offset="100%" stop-color="#e0b483" stop-opacity="0"/>
    </radialGradient>
    <radialGradient id="vign" cx="50%" cy="42%" r="75%">
      <stop offset="60%" stop-color="#000000" stop-opacity="0"/>
      <stop offset="100%" stop-color="#000000" stop-opacity="0.55"/>
    </radialGradient>
  </defs>
  <rect width="600" height="600" fill="url(#paint)"/>
  <g><line x1="40" y1="150" x2="62" y2="150" stroke="#e0b483" stroke-opacity="0.5" stroke-width="3" stroke-linecap="round"/><line x1="80" y1="150" x2="102" y2="150" stroke="#e0b483" stroke-opacity="0.5" stroke-width="3" stroke-linecap="round"/><line x1="120" y1="150" x2="142" y2="150" stroke="#e0b483" stroke-opacity="0.5" stroke-width="3" stroke-linecap="round"/><line x1="160" y1="150" x2="182" y2="150" stroke="#e0b483" stroke-opacity="0.5" stroke-width="3" stroke-linecap="round"/><line x1="200" y1="150" x2="222" y2="150" stroke="#e0b483" stroke-opacity="0.5" stroke-width="3" stroke-linecap="round"/><line x1="240" y1="150" x2="262" y2="150" stroke="#e0b483" stroke-opacity="0.5" stroke-width="3" stroke-linecap="round"/><line x1="280" y1="150" x2="302" y2="150" stroke="#e0b483" stroke-opacity="0.5" stroke-width="3" stroke-linecap="round"/><line x1="320" y1="150" x2="342" y2="150" stroke="#e0b483" stroke-opacity="0.5" stroke-width="3" stroke-linecap="round"/><line x1="360" y1="150" x2="382" y2="150" stroke="#e0b483" stroke-opacity="0.5" stroke-width="3" stroke-linecap="round"/><line x1="400" y1="150" x2="422" y2="150" stroke="#e0b483" stroke-opacity="0.5" stroke-width="3" stroke-linecap="round"/><line x1="440" y1="150" x2="462" y2="150" stroke="#e0b483" stroke-opacity="0.5" stroke-width="3" stroke-linecap="round"/><line x1="480" y1="150" x2="502" y2="150" stroke="#e0b483" stroke-opacity="0.5" stroke-width="3" stroke-linecap="round"/><line x1="520" y1="150" x2="542" y2="150" stroke="#e0b483" stroke-opacity="0.5" stroke-width="3" stroke-linecap="round"/><line x1="40" y1="230" x2="62" y2="230" stroke="#e0b483" stroke-opacity="0.5" stroke-width="3" stroke-linecap="round"/><line x1="80" y1="230" x2="102" y2="230" stroke="#e0b483" stroke-opacity="0.5" stroke-width="3" stroke-linecap="round"/><line x1="120" y1="230" x2="142" y2="230" stroke="#e0b483" stroke-opacity="0.5" stroke-width="3" stroke-linecap="round"/><line x1="160" y1="230" x2="182" y2="230" stroke="#e0b483" stroke-opacity="0.5" stroke-width="3" stroke-linecap="round"/><line x1="200" y1="230" x2="222" y2="230" stroke="#e0b483" stroke-opacity="0.5" stroke-width="3" stroke-linecap="round"/><line x1="240" y1="230" x2="262" y2="230" stroke="#e0b483" stroke-opacity="0.5" stroke-width="3" stroke-linecap="round"/><line x1="280" y1="230" x2="302" y2="230" stroke="#e0b483" stroke-opacity="0.5" stroke-width="3" stroke-linecap="round"/><line x1="320" y1="230" x2="342" y2="230" stroke="#e0b483" stroke-opacity="0.5" stroke-width="3" stroke-linecap="round"/><line x1="360" y1="230" x2="382" y2="230" stroke="#e0b483" stroke-opacity="0.5" stroke-width="3" stroke-linecap="round"/><line x1="400" y1="230" x2="422" y2="230" stroke="#e0b483" stroke-opacity="0.5" stroke-width="3" stroke-linecap="round"/><line x1="440" y1="230" x2="462" y2="230" stroke="#e0b483" stroke-opacity="0.5" stroke-width="3" stroke-linecap="round"/><line x1="480" y1="230" x2="502" y2="230" stroke="#e0b483" stroke-opacity="0.5" stroke-width="3" stroke-linecap="round"/><line x1="520" y1="230" x2="542" y2="230" stroke="#e0b483" stroke-opacity="0.5" stroke-width="3" stroke-linecap="round"/><line x1="40" y1="310" x2="62" y2="310" stroke="#e0b483" stroke-opacity="0.5" stroke-width="3" stroke-linecap="round"/><line x1="80" y1="310" x2="102" y2="310" stroke="#e0b483" stroke-opacity="0.5" stroke-width="3" stroke-linecap="round"/><line x1="120" y1="310" x2="142" y2="310" stroke="#e0b483" stroke-opacity="0.5" stroke-width="3" stroke-linecap="round"/><line x1="160" y1="310" x2="182" y2="310" stroke="#e0b483" stroke-opacity="0.5" stroke-width="3" stroke-linecap="round"/><line x1="200" y1="310" x2="222" y2="310" stroke="#e0b483" stroke-opacity="0.5" stroke-width="3" stroke-linecap="round"/><line x1="240" y1="310" x2="262" y2="310" stroke="#e0b483" stroke-opacity="0.5" stroke-width="3" stroke-linecap="round"/><line x1="280" y1="310" x2="302" y2="310" stroke="#e0b483" stroke-opacity="0.5" stroke-width="3" stroke-linecap="round"/><line x1="320" y1="310" x2="342" y2="310" stroke="#e0b483" stroke-opacity="0.5" stroke-width="3" stroke-linecap="round"/><line x1="360" y1="310" x2="382" y2="310" stroke="#e0b483" stroke-opacity="0.5" stroke-width="3" stroke-linecap="round"/><line x1="400" y1="310" x2="422" y2="310" stroke="#e0b483" stroke-opacity="0.5" stroke-width="3" stroke-linecap="round"/><line x1="440" y1="310" x2="462" y2="310" stroke="#e0b483" stroke-opacity="0.5" stroke-width="3" stroke-linecap="round"/><line x1="480" y1="310" x2="502" y2="310" stroke="#e0b483" stroke-opacity="0.5" stroke-width="3" stroke-linecap="round"/><line x1="520" y1="310" x2="542" y2="310" stroke="#e0b483" stroke-opacity="0.5" stroke-width="3" stroke-linecap="round"/><line x1="40" y1="390" x2="62" y2="390" stroke="#e0b483" stroke-opacity="0.5" stroke-width="3" stroke-linecap="round"/><line x1="80" y1="390" x2="102" y2="390" stroke="#e0b483" stroke-opacity="0.5" stroke-width="3" stroke-linecap="round"/><line x1="120" y1="390" x2="142" y2="390" stroke="#e0b483" stroke-opacity="0.5" stroke-width="3" stroke-linecap="round"/><line x1="160" y1="390" x2="182" y2="390" stroke="#e0b483" stroke-opacity="0.5" stroke-width="3" stroke-linecap="round"/><line x1="200" y1="390" x2="222" y2="390" stroke="#e0b483" stroke-opacity="0.5" stroke-width="3" stroke-linecap="round"/><line x1="240" y1="390" x2="262" y2="390" stroke="#e0b483" stroke-opacity="0.5" stroke-width="3" stroke-linecap="round"/><line x1="280" y1="390" x2="302" y2="390" stroke="#e0b483" stroke-opacity="0.5" stroke-width="3" stroke-linecap="round"/><line x1="320" y1="390" x2="342" y2="390" stroke="#e0b483" stroke-opacity="0.5" stroke-width="3" stroke-linecap="round"/><line x1="360" y1="390" x2="382" y2="390" stroke="#e0b483" stroke-opacity="0.5" stroke-width="3" stroke-linecap="round"/><line x1="400" y1="390" x2="422" y2="390" stroke="#e0b483" stroke-opacity="0.5" stroke-width="3" stroke-linecap="round"/><line x1="440" y1="390" x2="462" y2="390" stroke="#e0b483" stroke-opacity="0.5" stroke-width="3" stroke-linecap="round"/><line x1="480" y1="390" x2="502" y2="390" stroke="#e0b483" stroke-opacity="0.5" stroke-width="3" stroke-linecap="round"/><line x1="520" y1="390" x2="542" y2="390" stroke="#e0b483" stroke-opacity="0.5" stroke-width="3" stroke-linecap="round"/><line x1="40" y1="470" x2="62" y2="470" stroke="#e0b483" stroke-opacity="0.5" stroke-width="3" stroke-linecap="round"/><line x1="80" y1="470" x2="102" y2="470" stroke="#e0b483" stroke-opacity="0.5" stroke-width="3" stroke-linecap="round"/><line x1="120" y1="470" x2="142" y2="470" stroke="#e0b483" stroke-opacity="0.5" stroke-width="3" stroke-linecap="round"/><line x1="160" y1="470" x2="182" y2="470" stroke="#e0b483" stroke-opacity="0.5" stroke-width="3" stroke-linecap="round"/><line x1="200" y1="470" x2="222" y2="470" stroke="#e0b483" stroke-opacity="0.5" stroke-width="3" stroke-linecap="round"/><line x1="240" y1="470" x2="262" y2="470" stroke="#e0b483" stroke-opacity="0.5" stroke-width="3" stroke-linecap="round"/><line x1="280" y1="470" x2="302" y2="470" stroke="#e0b483" stroke-opacity="0.5" stroke-width="3" stroke-linecap="round"/><line x1="320" y1="470" x2="342" y2="470" stroke="#e0b483" stroke-opacity="0.5" stroke-width="3" stroke-linecap="round"/><line x1="360" y1="470" x2="382" y2="470" stroke="#e0b483" stroke-opacity="0.5" stroke-width="3" stroke-linecap="round"/><line x1="400" y1="470" x2="422" y2="470" stroke="#e0b483" stroke-opacity="0.5" stroke-width="3" stroke-linecap="round"/><line x1="440" y1="470" x2="462" y2="470" stroke="#e0b483" stroke-opacity="0.5" stroke-width="3" stroke-linecap="round"/><line x1="480" y1="470" x2="502" y2="470" stroke="#e0b483" stroke-opacity="0.5" stroke-width="3" stroke-linecap="round"/><line x1="520" y1="470" x2="542" y2="470" stroke="#e0b483" stroke-opacity="0.5" stroke-width="3" stroke-linecap="round"/></g>
  <rect width="600" height="600" fill="url(#vign)"/>
</svg>
