<svg xmlns="http://www.w3.org/2000/svg" viewBox="0 0 600 600" preserveAspectRatio="xMidYMid slice" role="img">
  <defs>
    <linearGradient id="paint" x1="0" y1="0" x2="1" y2="1">
      <stop offset="0%" stop-color="#0b1410"/>
      <stop offset="48%" stop-color="#153a2a"/>
      <stop offset="100%" stop-color="#071009"/>
    </linearGradient>
    <linearGradient id="sweep" x1="0" y1="0" x2="1" y2="0.2">
      <stop offset="0%" stop-color="#ffffff" stop-opacity="0"/>
      <stop offset="48%" stop-color="#8ff0c4" stop-opacity="0.16"/>
      <stop offset="53%" stop-color="#ffffff" stop-opacity="0.5"/>
      <stop offset="60%" stop-color="#8ff0c4" stop-opacity="0.16"/>
      <stop offset="100%" stop-color="#ffffff" stop-opacity="0"/>
    </linearGradient>
    <radialGradient id="orb" cx="50%" cy="50%" r="50%">
      <stop offset="0%" stop-color="#8ff0c4" stop-opacity="0.6"/>
      <stop offset="100%" stop-color="#8ff0c4" stop-opacity="0"/>
    </radialGradient>
    <radialGradient id="vign" cx="50%" cy="42%" r="75%">
      <stop offset="60%" stop-color="#000000" stop-opacity="0"/>
      <stop offset="100%" stop-color="#000000" stop-opacity="0.55"/>
    </radialGradient>
  </defs>
  <rect width="600" height="600" fill="url(#paint)"/>
  <g><circle cx="120" cy="180" r="7" fill="#8ff0c4" fill-opacity="0.16"/><circle cx="118" cy="177" r="2.4" fill="#ffffff" fill-opacity="0.4"/><circle cx="160" cy="210" r="4" fill="#8ff0c4" fill-opacity="0.16"/><circle cx="159" cy="208" r="1.4" fill="#ffffff" fill-opacity="0.4"/><circle cx="300" cy="150" r="9" fill="#8ff0c4" fill-opacity="0.16"/><circle cx="297" cy="146" r="3.1" fill="#ffffff" fill-opacity="0.4"/><circle cx="340" cy="175" r="5" fill="#8ff0c4" fill-opacity="0.16"/><circle cx="338" cy="173" r="1.8" fill="#ffffff" fill-opacity="0.4"/><circle cx="430" cy="260" r="8" fill="#8ff0c4" fill-opacity="0.16"/><circle cx="427" cy="257" r="2.8" fill="#ffffff" fill-opacity="0.4"/><circle cx="470" cy="240" r="4" fill="#8ff0c4" fill-opacity="0.16"/><circle cx="469" cy="238" r="1.4" fill="#ffffff" fill-opacity="0.4"/><circle cx="220" cy="360" r="7" fill="#8ff0c4" fill-opacity="0.16"/><circle cx="218" cy="357" r="2.4" fill="#ffffff" fill-opacity="0.4"/><circle cx="260" cy="385" r="4" fill="#8ff0c4" fill-opacity="0.16"/><circle cx="259" cy="383" r="1.4" fill="#ffffff" fill-opacity="0.4"/><circle cx="380" cy="420" r="9" fill="#8ff0c4" fill-opacity="0.16"/><circle cx="377" cy="416" r="3.1" fill="#ffffff" fill-opacity="0.4"/><circle cx="420" cy="400" r="5" fill="#8ff0c4" fill-opacity="0.16"/><circle cx="418" cy="398" r="1.8" fill="#ffffff" fill-opacity="0.4"/><circle cx="150" cy="430" r="6" fill="#8ff0c4" fill-opacity="0.16"/><circle cx="148" cy="428" r="2.1" fill="#ffffff" fill-opacity="0.4"/><circle cx="500" cy="340" r="7" fill="#8ff0c4" fill-opacity="0.16"/><circle cx="498" cy="337" r="2.4" fill="#ffffff" fill-opacity="0.4"/><circle cx="300" cy="300" r="11" fill="#8ff0c4" fill-opacity="0.16"/><circle cx="296" cy="296" r="3.8" fill="#ffffff" fill-opacity="0.4"/><circle cx="345" cy="320" r="5" fill="#8ff0c4" fill-opacity="0.16"/><circle cx="343" cy="318" r="1.8" fill="#ffffff" fill-opacity="0.4"/></g>
  <rect width="600" height="600" fill="url(#vign)"/>
</svg>
