<svg xmlns="http://www.w3.org/2000/svg" viewBox="0 0 600 600" preserveAspectRatio="xMidYMid slice" role="img">
  <defs>
    <linearGradient id="paint" x1="0" y1="0" x2="1" y2="1">
      <stop offset="0%" stop-color="#160f0a"/>
      <stop offset="48%" stop-color="#4a2c18"/>
      <stop offset="100%" stop-color="#0e0805"/>
    </linearGradient>
    <linearGradient id="sweep" x1="0" y1="0" x2="1" y2="0.2">
      <stop offset="0%" stop-color="#ffffff" stop-opacity="0"/>
      <stop offset="48%" stop-color="#d99f5e" stop-opacity="0.16"/>
      <stop offset="53%" stop-color="#ffffff" stop-opacity="0.5"/>
      <stop offset="60%" stop-color="#d99f5e" stop-opacity="0.16"/>
      <stop offset="100%" stop-color="#ffffff" stop-opacity="0"/>
    </linearGradient>
    <radialGradient id="orb" cx="50%" cy="50%" r="50%">
      <stop offset="0%" stop-color="#d99f5e" stop-opacity="0.6"/>
      <stop offset="100%" stop-color="#d99f5e" stop-opacity="0"/>
    </radialGradient>
    <radialGradient id="vign" cx="50%" cy="42%" r="75%">
      <stop offset="60%" stop-color="#000000" stop-opacity="0"/>
      <stop offset="100%" stop-color="#000000" stop-opacity="0.55"/>
    </radialGradient>
  </defs>
  <rect width="600" height="600" fill="url(#paint)"/>
  <g><circle cx="351" cy="174" r="1.8" fill="#d99f5e" fill-opacity="0.12"/><circle cx="69" cy="94" r="2.4" fill="#d99f5e" fill-opacity="0.05"/><circle cx="394" cy="79" r="2.4" fill="#d99f5e" fill-opacity="0.05"/><circle cx="58" cy="108" r="1.8" fill="#d99f5e" fill-opacity="0.08"/><circle cx="91" cy="266" r="1.2" fill="#d99f5e" fill-opacity="0.12"/><circle cx="454" cy="80" r="2.4" fill="#d99f5e" fill-opacity="0.05"/><circle cx="248" cy="83" r="2.4" fill="#d99f5e" fill-opacity="0.12"/><circle cx="426" cy="70" r="1.2" fill="#d99f5e" fill-opacity="0.05"/><circle cx="156" cy="316" r="1.8" fill="#d99f5e" fill-opacity="0.05"/><circle cx="573" cy="140" r="2.4" fill="#d99f5e" fill-opacity="0.08"/><circle cx="205" cy="125" r="2.4" fill="#d99f5e" fill-opacity="0.12"/><circle cx="212" cy="401" r="1.2" fill="#d99f5e" fill-opacity="0.12"/><circle cx="84" cy="81" r="2.4" fill="#d99f5e" fill-opacity="0.05"/><circle cx="528" cy="564" r="1.8" fill="#d99f5e" fill-opacity="0.08"/><circle cx="496" cy="484" r="1.8" fill="#d99f5e" fill-opacity="0.08"/><circle cx="274" cy="204" r="2.4" fill="#d99f5e" fill-opacity="0.05"/><circle cx="103" cy="327" r="2.4" fill="#d99f5e" fill-opacity="0.08"/><circle cx="371" cy="479" r="1.8" fill="#d99f5e" fill-opacity="0.12"/><circle cx="94" cy="140" r="2.4" fill="#d99f5e" fill-opacity="0.08"/><circle cx="188" cy="370" r="1.2" fill="#d99f5e" fill-opacity="0.08"/><circle cx="451" cy="60" r="2.4" fill="#d99f5e" fill-opacity="0.05"/><circle cx="341" cy="368" r="2.4" fill="#d99f5e" fill-opacity="0.08"/><circle cx="528" cy="487" r="1.2" fill="#d99f5e" fill-opacity="0.05"/><circle cx="296" cy="505" r="2.4" fill="#d99f5e" fill-opacity="0.12"/><circle cx="86" cy="82" r="2.4" fill="#d99f5e" fill-opacity="0.12"/><circle cx="337" cy="476" r="1.8" fill="#d99f5e" fill-opacity="0.12"/><circle cx="415" cy="375" r="1.2" fill="#d99f5e" fill-opacity="0.08"/><circle cx="383" cy="192" r="2.4" fill="#d99f5e" fill-opacity="0.05"/><circle cx="525" cy="80" r="1.2" fill="#d99f5e" fill-opacity="0.08"/><circle cx="152" cy="273" r="1.8" fill="#d99f5e" fill-opacity="0.08"/><circle cx="528" cy="102" r="1.2" fill="#d99f5e" fill-opacity="0.08"/><circle cx="431" cy="304" r="1.2" fill="#d99f5e" fill-opacity="0.08"/><circle cx="305" cy="445" r="1.8" fill="#d99f5e" fill-opacity="0.12"/><circle cx="409" cy="256" r="1.2" fill="#d99f5e" fill-opacity="0.05"/><circle cx="200" cy="174" r="1.2" fill="#d99f5e" fill-opacity="0.12"/><circle cx="258" cy="32" r="1.8" fill="#d99f5e" fill-opacity="0.12"/><circle cx="206" cy="289" r="1.8" fill="#d99f5e" fill-opacity="0.05"/><circle cx="169" cy="449" r="2.4" fill="#d99f5e" fill-opacity="0.08"/><circle cx="346" cy="148" r="2.4" fill="#d99f5e" fill-opacity="0.12"/><circle cx="75" cy="487" r="2.4" fill="#d99f5e" fill-opacity="0.12"/><circle cx="421" cy="427" r="1.8" fill="#d99f5e" fill-opacity="0.08"/><circle cx="126" cy="513" r="2.4" fill="#d99f5e" fill-opacity="0.08"/><circle cx="83" cy="215" r="1.2" fill="#d99f5e" fill-opacity="0.05"/><circle cx="471" cy="186" r="1.2" fill="#d99f5e" fill-opacity="0.08"/><circle cx="73" cy="124" r="1.2" fill="#d99f5e" fill-opacity="0.12"/><circle cx="174" cy="569" r="1.2" fill="#d99f5e" fill-opacity="0.08"/><circle cx="46" cy="92" r="1.2" fill="#d99f5e" fill-opacity="0.12"/><circle cx="405" cy="172" r="2.4" fill="#d99f5e" fill-opacity="0.08"/><circle cx="375" cy="392" r="1.8" fill="#d99f5e" fill-opacity="0.05"/><circle cx="138" cy="519" r="1.8" fill="#d99f5e" fill-opacity="0.08"/><circle cx="515" cy="339" r="1.2" fill="#d99f5e" fill-opacity="0.05"/><circle cx="124" cy="370" r="2.4" fill="#d99f5e" fill-opacity="0.08"/><circle cx="510" cy="185" r="2.4" fill="#d99f5e" fill-opacity="0.05"/><circle cx="230" cy="560" r="1.8" fill="#d99f5e" fill-opacity="0.05"/><circle cx="576" cy="47" r="2.4" fill="#d99f5e" fill-opacity="0.08"/><circle cx="113" cy="287" r="2.4" fill="#d99f5e" fill-opacity="0.08"/><circle cx="191" cy="384" r="1.2" fill="#d99f5e" fill-opacity="0.12"/><circle cx="574" cy="534" r="1.8" fill="#d99f5e" fill-opacity="0.12"/><circle cx="248" cy="219" r="1.2" fill="#d99f5e" fill-opacity="0.08"/><circle cx="252" cy="224" r="2.4" fill="#d99f5e" fill-opacity="0.08"/><circle cx="384" cy="49" r="1.2" fill="#d99f5e" fill-opacity="0.08"/><circle cx="503" cy="285" r="1.2" fill="#d99f5e" fill-opacity="0.12"/><circle cx="372" cy="477" r="2.4" fill="#d99f5e" fill-opacity="0.08"/><circle cx="393" cy="102" r="1.2" fill="#d99f5e" fill-opacity="0.05"/><circle cx="252" cy="501" r="1.2" fill="#d99f5e" fill-opacity="0.08"/><circle cx="229" cy="514" r="2.4" fill="#d99f5e" fill-opacity="0.12"/><circle cx="21" cy="510" r="2.4" fill="#d99f5e" fill-opacity="0.08"/><circle cx="106" cy="142" r="1.8" fill="#d99f5e" fill-opacity="0.12"/><circle cx="224" cy="509" r="1.2" fill="#d99f5e" fill-opacity="0.08"/><circle cx="360" cy="108" r="2.4" fill="#d99f5e" fill-opacity="0.08"/><circle cx="494" cy="431" r="2.4" fill="#d99f5e" fill-opacity="0.05"/><circle cx="182" cy="194" r="1.2" fill="#d99f5e" fill-opacity="0.05"/><circle cx="174" cy="496" r="2.4" fill="#d99f5e" fill-opacity="0.05"/><circle cx="505" cy="378" r="1.2" fill="#d99f5e" fill-opacity="0.12"/><circle cx="154" cy="41" r="1.2" fill="#d99f5e" fill-opacity="0.12"/><circle cx="125" cy="559" r="2.4" fill="#d99f5e" fill-opacity="0.05"/><circle cx="464" cy="219" r="1.2" fill="#d99f5e" fill-opacity="0.05"/><circle cx="277" cy="237" r="1.8" fill="#d99f5e" fill-opacity="0.12"/><circle cx="266" cy="353" r="1.8" fill="#d99f5e" fill-opacity="0.12"/><circle cx="449" cy="154" r="1.2" fill="#d99f5e" fill-opacity="0.12"/><circle cx="382" cy="489" r="2.4" fill="#d99f5e" fill-opacity="0.12"/><circle cx="549" cy="450" r="2.4" fill="#d99f5e" fill-opacity="0.05"/><circle cx="564" cy="175" r="2.4" fill="#d99f5e" fill-opacity="0.12"/><circle cx="39" cy="470" r="1.2" fill="#d99f5e" fill-opacity="0.12"/><circle cx="24" cy="173" r="1.2" fill="#d99f5e" fill-opacity="0.05"/><circle cx="504" cy="143" r="2.4" fill="#d99f5e" fill-opacity="0.05"/><circle cx="353" cy="550" r="2.4" fill="#d99f5e" fill-opacity="0.12"/><circle cx="514" cy="128" r="2.4" fill="#d99f5e" fill-opacity="0.05"/><circle cx="274" cy="215" r="1.8" fill="#d99f5e" fill-opacity="0.05"/><circle cx="120" cy="539" r="1.8" fill="#d99f5e" fill-opacity="0.12"/><circle cx="48" cy="84" r="1.8" fill="#d99f5e" fill-opacity="0.08"/><circle cx="537" cy="544" r="1.2" fill="#d99f5e" fill-opacity="0.12"/><circle cx="303" cy="483" r="2.4" fill="#d99f5e" fill-opacity="0.12"/><circle cx="509" cy="539" r="1.2" fill="#d99f5e" fill-opacity="0.12"/><circle cx="555" cy="285" r="2.4" fill="#d99f5e" fill-opacity="0.05"/><circle cx="478" cy="160" r="1.8" fill="#d99f5e" fill-opacity="0.05"/><circle cx="421" cy="472" r="1.8" fill="#d99f5e" fill-opacity="0.05"/><circle cx="266" cy="458" r="1.2" fill="#d99f5e" fill-opacity="0.05"/><circle cx="330" cy="145" r="1.2" fill="#d99f5e" fill-opacity="0.12"/><circle cx="394" cy="166" r="1.8" fill="#d99f5e" fill-opacity="0.05"/><circle cx="498" cy="244" r="2.4" fill="#d99f5e" fill-opacity="0.05"/><circle cx="427" cy="518" r="1.2" fill="#d99f5e" fill-opacity="0.12"/><circle cx="249" cy="185" r="2.4" fill="#d99f5e" fill-opacity="0.08"/><circle cx="547" cy="433" r="1.8" fill="#d99f5e" fill-opacity="0.08"/><circle cx="220" cy="385" r="1.8" fill="#d99f5e" fill-opacity="0.05"/><circle cx="394" cy="39" r="1.8" fill="#d99f5e" fill-opacity="0.12"/><circle cx="489" cy="471" r="2.4" fill="#d99f5e" fill-opacity="0.05"/><circle cx="413" cy="359" r="2.4" fill="#d99f5e" fill-opacity="0.12"/><circle cx="322" cy="544" r="1.2" fill="#d99f5e" fill-opacity="0.05"/><circle cx="254" cy="127" r="1.2" fill="#d99f5e" fill-opacity="0.08"/><circle cx="298" cy="60" r="1.2" fill="#d99f5e" fill-opacity="0.08"/><circle cx="152" cy="452" r="2.4" fill="#d99f5e" fill-opacity="0.08"/><circle cx="435" cy="172" r="2.4" fill="#d99f5e" fill-opacity="0.12"/><circle cx="526" cy="354" r="1.2" fill="#d99f5e" fill-opacity="0.08"/><circle cx="78" cy="207" r="1.8" fill="#d99f5e" fill-opacity="0.05"/><circle cx="295" cy="37" r="2.4" fill="#d99f5e" fill-opacity="0.05"/><circle cx="286" cy="105" r="2.4" fill="#d99f5e" fill-opacity="0.05"/><circle cx="88" cy="290" r="1.2" fill="#d99f5e" fill-opacity="0.08"/><circle cx="31" cy="367" r="2.4" fill="#d99f5e" fill-opacity="0.08"/><circle cx="294" cy="152" r="1.2" fill="#d99f5e" fill-opacity="0.12"/><circle cx="264" cy="132" r="1.2" fill="#d99f5e" fill-opacity="0.08"/><circle cx="71" cy="205" r="1.2" fill="#d99f5e" fill-opacity="0.08"/><circle cx="332" cy="563" r="1.2" fill="#d99f5e" fill-opacity="0.08"/><circle cx="476" cy="532" r="2.4" fill="#d99f5e" fill-opacity="0.05"/><circle cx="297" cy="375" r="1.2" fill="#d99f5e" fill-opacity="0.08"/><circle cx="57" cy="35" r="1.2" fill="#d99f5e" fill-opacity="0.12"/><circle cx="537" cy="214" r="2.4" fill="#d99f5e" fill-opacity="0.08"/><circle cx="271" cy="477" r="1.2" fill="#d99f5e" fill-opacity="0.12"/><circle cx="462" cy="526" r="2.4" fill="#d99f5e" fill-opacity="0.08"/><circle cx="538" cy="335" r="2.4" fill="#d99f5e" fill-opacity="0.05"/><circle cx="255" cy="370" r="1.2" fill="#d99f5e" fill-opacity="0.12"/><circle cx="163" cy="434" r="1.8" fill="#d99f5e" fill-opacity="0.05"/><circle cx="152" cy="34" r="1.2" fill="#d99f5e" fill-opacity="0.12"/><circle cx="281" cy="461" r="1.2" fill="#d99f5e" fill-opacity="0.05"/><circle cx="106" cy="410" r="2.4" fill="#d99f5e" fill-opacity="0.12"/><circle cx="308" cy="268" r="2.4" fill="#d99f5e" fill-opacity="0.08"/><circle cx="66" cy="490" r="1.2" fill="#d99f5e" fill-opacity="0.05"/><circle cx="295" cy="476" r="1.2" fill="#d99f5e" fill-opacity="0.08"/><circle cx="392" cy="356" r="2.4" fill="#d99f5e" fill-opacity="0.08"/><circle cx="270" cy="55" r="1.8" fill="#d99f5e" fill-opacity="0.05"/><circle cx="385" cy="207" r="1.2" fill="#d99f5e" fill-opacity="0.08"/><circle cx="410" cy="105" r="1.8" fill="#d99f5e" fill-opacity="0.08"/><circle cx="534" cy="225" r="1.2" fill="#d99f5e" fill-opacity="0.12"/><circle cx="25" cy="113" r="1.8" fill="#d99f5e" fill-opacity="0.05"/><circle cx="167" cy="429" r="2.4" fill="#d99f5e" fill-opacity="0.05"/><circle cx="423" cy="43" r="1.8" fill="#d99f5e" fill-opacity="0.08"/><circle cx="258" cy="106" r="2.4" fill="#d99f5e" fill-opacity="0.12"/><circle cx="178" cy="418" r="1.8" fill="#d99f5e" fill-opacity="0.12"/><circle cx="526" cy="173" r="1.8" fill="#d99f5e" fill-opacity="0.12"/><circle cx="168" cy="64" r="2.4" fill="#d99f5e" fill-opacity="0.12"/><circle cx="459" cy="537" r="1.2" fill="#d99f5e" fill-opacity="0.12"/><circle cx="536" cy="36" r="2.4" fill="#d99f5e" fill-opacity="0.12"/><circle cx="255" cy="107" r="1.2" fill="#d99f5e" fill-opacity="0.05"/><circle cx="156" cy="389" r="1.2" fill="#d99f5e" fill-opacity="0.08"/><circle cx="482" cy="71" r="2.4" fill="#d99f5e" fill-opacity="0.05"/><circle cx="564" cy="270" r="1.8" fill="#d99f5e" fill-opacity="0.08"/><circle cx="23" cy="487" r="1.2" fill="#d99f5e" fill-opacity="0.12"/><circle cx="535" cy="568" r="1.2" fill="#d99f5e" fill-opacity="0.12"/><circle cx="558" cy="87" r="2.4" fill="#d99f5e" fill-opacity="0.12"/><circle cx="505" cy="278" r="1.2" fill="#d99f5e" fill-opacity="0.08"/><circle cx="260" cy="230" r="1.2" fill="#d99f5e" fill-opacity="0.12"/><circle cx="491" cy="525" r="1.8" fill="#d99f5e" fill-opacity="0.05"/><circle cx="510" cy="314" r="1.2" fill="#d99f5e" fill-opacity="0.12"/><circle cx="223" cy="99" r="2.4" fill="#d99f5e" fill-opacity="0.05"/><circle cx="359" cy="280" r="2.4" fill="#d99f5e" fill-opacity="0.12"/><circle cx="331" cy="156" r="1.2" fill="#d99f5e" fill-opacity="0.08"/><circle cx="82" cy="517" r="1.8" fill="#d99f5e" fill-opacity="0.12"/><circle cx="121" cy="242" r="2.4" fill="#d99f5e" fill-opacity="0.08"/><circle cx="317" cy="548" r="1.8" fill="#d99f5e" fill-opacity="0.08"/><circle cx="497" cy="497" r="1.2" fill="#d99f5e" fill-opacity="0.12"/><circle cx="224" cy="339" r="1.2" fill="#d99f5e" fill-opacity="0.08"/><circle cx="37" cy="316" r="1.8" fill="#d99f5e" fill-opacity="0.05"/><circle cx="538" cy="480" r="1.8" fill="#d99f5e" fill-opacity="0.08"/><circle cx="234" cy="235" r="1.2" fill="#d99f5e" fill-opacity="0.12"/><circle cx="112" cy="165" r="2.4" fill="#d99f5e" fill-opacity="0.12"/><circle cx="288" cy="388" r="1.2" fill="#d99f5e" fill-opacity="0.12"/><circle cx="540" cy="306" r="1.2" fill="#d99f5e" fill-opacity="0.12"/><circle cx="393" cy="256" r="1.8" fill="#d99f5e" fill-opacity="0.08"/><circle cx="423" cy="45" r="1.2" fill="#d99f5e" fill-opacity="0.05"/><circle cx="523" cy="481" r="1.8" fill="#d99f5e" fill-opacity="0.08"/><circle cx="164" cy="446" r="1.8" fill="#d99f5e" fill-opacity="0.08"/><circle cx="343" cy="143" r="1.8" fill="#d99f5e" fill-opacity="0.05"/><circle cx="352" cy="366" r="1.8" fill="#d99f5e" fill-opacity="0.05"/><circle cx="220" cy="32" r="2.4" fill="#d99f5e" fill-opacity="0.08"/><circle cx="279" cy="401" r="1.2" fill="#d99f5e" fill-opacity="0.08"/><circle cx="419" cy="98" r="1.8" fill="#d99f5e" fill-opacity="0.08"/><circle cx="301" cy="69" r="1.8" fill="#d99f5e" fill-opacity="0.05"/><circle cx="72" cy="312" r="2.4" fill="#d99f5e" fill-opacity="0.05"/><circle cx="275" cy="292" r="1.8" fill="#d99f5e" fill-opacity="0.12"/><circle cx="343" cy="214" r="1.8" fill="#d99f5e" fill-opacity="0.08"/><circle cx="49" cy="429" r="2.4" fill="#d99f5e" fill-opacity="0.12"/><circle cx="228" cy="102" r="1.2" fill="#d99f5e" fill-opacity="0.12"/><circle cx="440" cy="481" r="2.4" fill="#d99f5e" fill-opacity="0.05"/><circle cx="313" cy="517" r="1.2" fill="#d99f5e" fill-opacity="0.12"/><circle cx="150" cy="194" r="1.8" fill="#d99f5e" fill-opacity="0.08"/><circle cx="371" cy="308" r="1.8" fill="#d99f5e" fill-opacity="0.08"/><circle cx="286" cy="435" r="2.4" fill="#d99f5e" fill-opacity="0.05"/><circle cx="328" cy="514" r="2.4" fill="#d99f5e" fill-opacity="0.12"/><circle cx="423" cy="142" r="1.2" fill="#d99f5e" fill-opacity="0.12"/><circle cx="185" cy="96" r="1.2" fill="#d99f5e" fill-opacity="0.12"/><circle cx="529" cy="245" r="1.8" fill="#d99f5e" fill-opacity="0.08"/><circle cx="480" cy="457" r="1.2" fill="#d99f5e" fill-opacity="0.12"/><circle cx="217" cy="269" r="1.2" fill="#d99f5e" fill-opacity="0.05"/><circle cx="370" cy="113" r="1.8" fill="#d99f5e" fill-opacity="0.05"/><circle cx="397" cy="284" r="2.4" fill="#d99f5e" fill-opacity="0.05"/><circle cx="40" cy="442" r="1.8" fill="#d99f5e" fill-opacity="0.08"/><circle cx="556" cy="235" r="1.8" fill="#d99f5e" fill-opacity="0.08"/><circle cx="366" cy="83" r="1.8" fill="#d99f5e" fill-opacity="0.08"/><circle cx="388" cy="148" r="2.4" fill="#d99f5e" fill-opacity="0.12"/><circle cx="561" cy="241" r="1.2" fill="#d99f5e" fill-opacity="0.08"/><circle cx="274" cy="413" r="1.8" fill="#d99f5e" fill-opacity="0.12"/><circle cx="476" cy="462" r="1.8" fill="#d99f5e" fill-opacity="0.05"/><circle cx="150" cy="53" r="1.8" fill="#d99f5e" fill-opacity="0.12"/><circle cx="504" cy="521" r="1.2" fill="#d99f5e" fill-opacity="0.05"/><circle cx="420" cy="560" r="1.8" fill="#d99f5e" fill-opacity="0.08"/><circle cx="274" cy="131" r="1.2" fill="#d99f5e" fill-opacity="0.05"/><circle cx="175" cy="554" r="2.4" fill="#d99f5e" fill-opacity="0.05"/><circle cx="488" cy="107" r="2.4" fill="#d99f5e" fill-opacity="0.05"/><circle cx="21" cy="148" r="1.2" fill="#d99f5e" fill-opacity="0.12"/><circle cx="58" cy="331" r="1.2" fill="#d99f5e" fill-opacity="0.12"/></g>
  <rect width="600" height="600" fill="url(#vign)"/>
</svg>
