<svg xmlns="http://www.w3.org/2000/svg" viewBox="0 0 64 64" width="64" height="64">
  <defs>
    <linearGradient id="g" x1="0" y1="0" x2="1" y2="1">
      <stop offset="0" stop-color="#c9738c"/>
      <stop offset="1" stop-color="#8f3f57"/>
    </linearGradient>
  </defs>
  <rect width="64" height="64" rx="15" fill="url(#g)"/>
  <path d="M32 47.5c-1 0-1.6-.5-2.7-1.4C22.6 40.6 17 36 17 29.6c0-3.9 3-6.9 6.8-6.9 2.5 0 4.6 1.3 5.9 3.3l2.3 3.3 2.3-3.3c1.3-2 3.4-3.3 5.9-3.3 3.8 0 6.8 3 6.8 6.9 0 6.4-5.6 11-12.3 16.5-1.1.9-1.7 1.4-2.7 1.4z" fill="#fdeef1"/>
  <ellipse cx="32" cy="24" rx="4.6" ry="6.4" fill="#fdeef1" opacity=".9"/>
  <path d="M32 18.4c2.2 0 3.9 2.3 3.9 5.4 0 .9-.15 1.75-.4 2.5-.9-2-2.1-3.4-3.5-3.9-1.4.5-2.6 1.9-3.5 3.9-.25-.75-.4-1.6-.4-2.5 0-3.1 1.7-5.4 3.9-5.4z" fill="#8f3f57" opacity=".35"/>
</svg>
