<svg xmlns="http://www.w3.org/2000/svg" viewBox="0 0 64 64" width="64" height="64">
  <defs>
    <linearGradient id="g" x1="0" y1="0" x2="1" y2="1">
      <stop offset="0" stop-color="#c99a5b"/>
      <stop offset="0.5" stop-color="#a9743a"/>
      <stop offset="1" stop-color="#7c4f24"/>
    </linearGradient>
  </defs>
  <rect width="64" height="64" rx="16" fill="#fbeef0"/>
  <rect x="2.5" y="2.5" width="59" height="59" rx="14" fill="none" stroke="url(#g)" stroke-width="2.4"/>
  <!-- polish bottle -->
  <g fill="url(#g)">
    <rect x="27" y="12" width="10" height="6" rx="2"/>
    <rect x="29" y="18" width="6" height="4"/>
    <path d="M23 24c0-1.5 1.2-2.7 2.7-2.7h12.6c1.5 0 2.7 1.2 2.7 2.7v20c0 3.9-3.2 7-7 7h-6c-3.9 0-7-3.1-7-7V24z"/>
  </g>
  <path d="M23 24c0-1.5 1.2-2.7 2.7-2.7h12.6c1.5 0 2.7 1.2 2.7 2.7v20c0 3.9-3.2 7-7 7h-6c-3.9 0-7-3.1-7-7V24z" fill="none" stroke="#fbeef0" stroke-width="1.4" opacity="0.5"/>
  <path d="M25 47c1 2.5 3.4 4 6 4h6c2.6 0 5-1.5 6-4z" fill="#e7bfa4" opacity="0.55"/>
</svg>
